<svg width="235" height="80" viewBox="0 0 235 80" fill="none" xmlns="http://www.w3.org/2000/svg">
<mask id="path-1-outside-1_621_3" maskUnits="userSpaceOnUse" x="180.268" y="28.7502" width="54" height="24" fill="black">
<rect fill="white" x="180.268" y="28.7502" width="54" height="24"/>
<path d="M196.763 47.0952H188.9L187.64 50.8163H182.268L189.891 29.7502H195.832L203.455 50.8163H198.023L196.763 47.0952ZM195.442 43.1341L192.831 35.4219L190.251 43.1341H195.442ZM218.888 47.0952H211.026L209.765 50.8163H204.394L212.016 29.7502H217.958L225.58 50.8163H220.148L218.888 47.0952ZM217.568 43.1341L214.957 35.4219L212.376 43.1341H217.568ZM233.031 29.7502V50.8163H227.9V29.7502H233.031Z"/>
</mask>
<path d="M196.763 47.0952L197.71 46.7744L197.48 46.0952H196.763V47.0952ZM188.9 47.0952V46.0952H188.183L187.953 46.7744L188.9 47.0952ZM187.64 50.8163V51.8163H188.357L188.587 51.1371L187.64 50.8163ZM182.268 50.8163L181.328 50.4761L180.843 51.8163H182.268V50.8163ZM189.891 29.7502V28.7502H189.189L188.95 29.41L189.891 29.7502ZM195.832 29.7502L196.773 29.41L196.534 28.7502H195.832V29.7502ZM203.455 50.8163V51.8163H204.88L204.395 50.4761L203.455 50.8163ZM198.023 50.8163L197.076 51.1371L197.306 51.8163H198.023V50.8163ZM195.442 43.1341V44.1341H196.837L196.389 42.8134L195.442 43.1341ZM192.831 35.4219L193.779 35.1012L192.826 32.287L191.883 35.1045L192.831 35.4219ZM190.251 43.1341L189.302 42.8168L188.862 44.1341H190.251V43.1341ZM218.888 47.0952L219.835 46.7744L219.605 46.0952H218.888V47.0952ZM211.026 47.0952V46.0952H210.309L210.079 46.7744L211.026 47.0952ZM209.765 50.8163V51.8163H210.483L210.713 51.1371L209.765 50.8163ZM204.394 50.8163L203.454 50.4761L202.969 51.8163H204.394V50.8163ZM212.016 29.7502V28.7502H211.315L211.076 29.41L212.016 29.7502ZM217.958 29.7502L218.898 29.41L218.659 28.7502H217.958V29.7502ZM225.58 50.8163V51.8163H227.005L226.52 50.4761L225.58 50.8163ZM220.148 50.8163L219.201 51.1371L219.431 51.8163H220.148V50.8163ZM217.568 43.1341V44.1341H218.962L218.515 42.8134L217.568 43.1341ZM214.957 35.4219L215.904 35.1012L214.951 32.287L214.009 35.1045L214.957 35.4219ZM212.376 43.1341L211.428 42.8168L210.987 44.1341H212.376V43.1341ZM233.031 29.7502H234.031V28.7502H233.031V29.7502ZM233.031 50.8163V51.8163H234.031V50.8163H233.031ZM227.9 50.8163H226.9V51.8163H227.9V50.8163ZM227.9 29.7502V28.7502H226.9V29.7502H227.9ZM196.763 46.0952H188.9V48.0952H196.763V46.0952ZM187.953 46.7744L186.693 50.4955L188.587 51.1371L189.848 47.416L187.953 46.7744ZM187.64 49.8163H182.268V51.8163H187.64V49.8163ZM183.209 51.1565L190.831 30.0905L188.95 29.41L181.328 50.4761L183.209 51.1565ZM189.891 30.7502H195.832V28.7502H189.891V30.7502ZM194.892 30.0905L202.514 51.1565L204.395 50.4761L196.773 29.41L194.892 30.0905ZM203.455 49.8163H198.023V51.8163H203.455V49.8163ZM198.97 50.4955L197.71 46.7744L195.815 47.416L197.076 51.1371L198.97 50.4955ZM196.389 42.8134L193.779 35.1012L191.884 35.7425L194.495 43.4547L196.389 42.8134ZM191.883 35.1045L189.302 42.8168L191.199 43.4514L193.78 35.7392L191.883 35.1045ZM190.251 44.1341H195.442V42.1341H190.251V44.1341ZM218.888 46.0952H211.026V48.0952H218.888V46.0952ZM210.079 46.7744L208.818 50.4955L210.713 51.1371L211.973 47.416L210.079 46.7744ZM209.765 49.8163H204.394V51.8163H209.765V49.8163ZM205.334 51.1565L212.956 30.0905L211.076 29.41L203.454 50.4761L205.334 51.1565ZM212.016 30.7502H217.958V28.7502H212.016V30.7502ZM217.017 30.0905L224.64 51.1565L226.52 50.4761L218.898 29.41L217.017 30.0905ZM225.58 49.8163H220.148V51.8163H225.58V49.8163ZM221.096 50.4955L219.835 46.7744L217.941 47.416L219.201 51.1371L221.096 50.4955ZM218.515 42.8134L215.904 35.1012L214.01 35.7425L216.621 43.4547L218.515 42.8134ZM214.009 35.1045L211.428 42.8168L213.325 43.4514L215.905 35.7392L214.009 35.1045ZM212.376 44.1341H217.568V42.1341H212.376V44.1341ZM232.031 29.7502V50.8163H234.031V29.7502H232.031ZM233.031 49.8163H227.9V51.8163H233.031V49.8163ZM228.9 50.8163V29.7502H226.9V50.8163H228.9ZM227.9 30.7502H233.031V28.7502H227.9V30.7502Z" fill="white" mask="url(#path-1-outside-1_621_3)"/>
<path d="M108.098 39.9021C109.337 40.1332 110.387 40.7634 111.249 41.7927C112.11 42.822 112.54 44.0193 112.54 45.3847C112.54 46.498 112.257 47.5063 111.69 48.4096C111.144 49.2918 110.335 49.9955 109.264 50.5207C108.192 51.0248 106.911 51.2769 105.419 51.2769H97.7942V29.2521H105.199C107.425 29.2521 109.116 29.7667 110.272 30.796C111.448 31.8253 112.036 33.1592 112.036 34.7977C112.036 36.1631 111.669 37.2764 110.933 38.1376C110.198 38.9779 109.253 39.566 108.098 39.9021ZM99.9999 38.9884H105.136C106.627 38.9884 107.772 38.6418 108.57 37.9486C109.39 37.2344 109.799 36.2576 109.799 35.0182C109.799 33.7999 109.39 32.8441 108.57 32.1509C107.772 31.4577 106.596 31.1111 105.041 31.1111H99.9999V38.9884ZM105.262 49.4179C106.858 49.4179 108.098 49.0398 108.98 48.2835C109.883 47.5273 110.335 46.4875 110.335 45.1641C110.335 43.8408 109.862 42.7905 108.917 42.0132C107.993 41.215 106.743 40.8159 105.167 40.8159H99.9999V49.4179H105.262Z" fill="white"/>
<path d="M126.489 51.4975C124.451 51.4975 122.603 51.0248 120.943 50.0795C119.284 49.1133 117.971 47.7794 117.005 46.0779C116.059 44.3554 115.587 42.4123 115.587 40.2487C115.587 38.0851 116.059 36.1526 117.005 34.4511C117.971 32.7286 119.284 31.3947 120.943 30.4494C122.603 29.4831 124.451 29 126.489 29C128.547 29 130.406 29.4831 132.066 30.4494C133.725 31.3947 135.028 32.7286 135.973 34.4511C136.918 36.1526 137.391 38.0851 137.391 40.2487C137.391 42.4123 136.918 44.3554 135.973 46.0779C135.028 47.7794 133.725 49.1133 132.066 50.0795C130.406 51.0248 128.547 51.4975 126.489 51.4975ZM126.489 49.5754C128.127 49.5754 129.598 49.1973 130.9 48.4411C132.203 47.6849 133.232 46.6031 133.988 45.1956C134.744 43.7672 135.122 42.1183 135.122 40.2487C135.122 38.3792 134.744 36.7407 133.988 35.3333C133.232 33.9259 132.203 32.8441 130.9 32.0879C129.598 31.3317 128.127 30.9536 126.489 30.9536C124.85 30.9536 123.38 31.3317 122.078 32.0879C120.775 32.8441 119.746 33.9259 118.99 35.3333C118.233 36.7407 117.855 38.3792 117.855 40.2487C117.855 42.1183 118.233 43.7672 118.99 45.1956C119.746 46.6031 120.775 47.6849 122.078 48.4411C123.38 49.1973 124.85 49.5754 126.489 49.5754Z" fill="white"/>
<path d="M143.632 49.4809H151.541V51.2769H141.427V29.2521H143.632V49.4809Z" fill="white"/>
<path d="M156.895 31.0481V39.2719H165.245V41.0995H156.895V49.4494H166.19V51.2769H154.689V29.2206H166.19V31.0481H156.895Z" fill="white"/>
<path d="M183.423 29.2521V31.0796H177.31V51.2769H175.105V31.0796H168.96V29.2521H183.423Z" fill="white"/>
<path d="M20.6676 39.0772C22.0229 39.3299 23.1714 40.019 24.1132 41.1445C25.055 42.2701 25.5259 43.5794 25.5259 45.0725C25.5259 46.2899 25.2158 47.3925 24.5956 48.3802C23.9983 49.3449 23.114 50.1145 21.9425 50.6887C20.771 51.24 19.3698 51.5156 17.7389 51.5156H9.4007V27.4313H17.4977C19.9326 27.4313 21.7817 27.994 23.0451 29.1196C24.3314 30.2451 24.9746 31.7038 24.9746 33.4954C24.9746 34.9885 24.5726 36.2059 23.7686 37.1477C22.9647 38.0665 21.931 38.7097 20.6676 39.0772ZM11.8126 38.078H17.4288C19.0597 38.078 20.3116 37.699 21.1845 36.941C22.0803 36.16 22.5282 35.0919 22.5282 33.7366C22.5282 32.4043 22.0803 31.3592 21.1845 30.6012C20.3116 29.8432 19.0253 29.4641 17.3255 29.4641H11.8126V38.078ZM17.5666 49.4828C19.3124 49.4828 20.6676 49.0693 21.6324 48.2424C22.6201 47.4154 23.114 46.2784 23.114 44.8313C23.114 43.3842 22.5971 42.2356 21.5635 41.3857C20.5528 40.5129 19.186 40.0764 17.4633 40.0764H11.8126V49.4828H17.5666Z" fill="white"/>
<path d="M41.674 52.0157H42.0326L42.1476 51.6761L43.4108 47.9466H51.2912L52.5544 51.6761L52.6694 52.0157H53.0279H58.9674H59.68L59.4376 51.3456L51.1026 28.3096L50.9833 27.9797H50.6325H44.1351H43.7843L43.665 28.3096L35.33 51.3456L35.0876 52.0157H35.8002H41.674ZM67.6154 28.4797V27.9797H67.1154H61.5041H61.0041V28.4797V51.5157V52.0157H61.5041H67.1154H67.6154V51.5157V28.4797ZM45.2235 42.6151L47.3537 36.2492L49.5087 42.6151H45.2235Z" stroke="#FFFEFE"/>
<circle cx="30.3406" cy="49.9069" r="2.09194" transform="rotate(147.326 30.3406 49.9069)" fill="white"/>
<circle cx="66.6952" cy="12.0559" r="4.10184" fill="url(#paint0_radial_621_3)"/>
<circle cx="12.3048" cy="66.7746" r="4.10184" transform="rotate(147.326 12.3048 66.7746)" fill="url(#paint1_radial_621_3)"/>
<path d="M15.2652 8.31352C21.3755 3.54957 28.8683 0.670894 36.6697 0.0899095C39.8266 -0.145126 43.7844 0.0887609 46.9337 0.696572C52.8275 1.83409 58.4147 4.31234 63.2086 7.91548C64.0056 8.5145 64.7866 9.15249 65.5467 9.8238L64.9243 10.5875C58.8389 5.25027 51.5524 2.05576 43.4788 1.18543C42.3621 1.065 38.3553 0.961222 37.4491 1.02915C34.979 1.21439 33.3363 1.43113 31.5424 1.80842C26.8191 2.80188 22.1834 4.75928 18.0884 7.4893C14.0456 10.1845 10.3626 13.8512 7.60949 17.9216C3.92841 23.3641 1.82401 29.242 1.13326 36.0107C0.996748 37.3484 0.99683 41.6473 1.13342 42.9838C1.36444 45.2452 1.77725 47.5831 2.26315 49.3827C3.66285 54.5663 6.06891 59.2847 9.25207 63.329L8.53111 64.0226C7.28069 62.4455 6.1428 60.762 5.13272 58.981C-2.6132 45.323 -1.51826 28.3435 7.91819 15.7886C9.95008 13.0853 12.5902 10.3991 15.2652 8.31352Z" fill="url(#paint2_linear_621_3)"/>
<path d="M63.7348 70.7184C57.6245 75.4824 50.1317 78.361 42.3303 78.942C39.1734 79.1771 35.2156 78.9432 32.0663 78.3354C26.1725 77.1978 20.5853 74.7196 15.7914 71.1165C14.9944 70.5174 14.2134 69.8794 13.4533 69.2081L14.0757 68.4444C20.1611 73.7817 27.4476 76.9762 35.5212 77.8465C36.6379 77.9669 40.6447 78.0707 41.5509 78.0028C44.021 77.8175 45.6637 77.6008 47.4576 77.2235C52.1809 76.2301 56.8166 74.2727 60.9116 71.5426C64.9544 68.8474 68.6374 65.1808 71.3905 61.1103C75.0716 55.6679 77.176 49.7899 77.8667 43.0212C78.0033 41.6835 78.0032 37.3846 77.8666 36.0481C77.6356 33.7868 77.2228 31.4488 76.7369 29.6492C75.3371 24.4656 72.9311 19.7472 69.7479 15.703L70.4689 15.0093C71.7193 16.5864 72.8572 18.2699 73.8673 20.0509C81.6132 33.709 80.5183 50.6884 71.0818 63.2433C69.0499 65.9467 66.4098 68.6329 63.7348 70.7184Z" fill="url(#paint3_linear_621_3)"/>
<defs>
<radialGradient id="paint0_radial_621_3" cx="0" cy="0" r="1" gradientUnits="userSpaceOnUse" gradientTransform="translate(69.3204 16.8961) rotate(-118.015) scale(7.2482)">
<stop stop-color="white"/>
<stop offset="0.0001" stop-color="white" stop-opacity="0.5"/>
<stop offset="0.9999" stop-color="white"/>
</radialGradient>
<radialGradient id="paint1_radial_621_3" cx="0" cy="0" r="1" gradientUnits="userSpaceOnUse" gradientTransform="translate(14.9299 71.6147) rotate(-118.015) scale(7.2482)">
<stop stop-color="white"/>
<stop offset="0.0001" stop-color="white" stop-opacity="0.5"/>
<stop offset="0.9999" stop-color="white"/>
</radialGradient>
<linearGradient id="paint2_linear_621_3" x1="65.5467" y1="11.0715" x2="13.6994" y2="68.0051" gradientUnits="userSpaceOnUse">
<stop stop-color="white"/>
<stop offset="1" stop-color="white" stop-opacity="0"/>
</linearGradient>
<linearGradient id="paint3_linear_621_3" x1="13.4533" y1="67.9604" x2="65.3006" y2="11.0269" gradientUnits="userSpaceOnUse">
<stop stop-color="white"/>
<stop offset="1" stop-color="white" stop-opacity="0"/>
</linearGradient>
</defs>
</svg>
